<?xml version="1.0" encoding="utf-8"?>
<!-- Generator: Adobe Illustrator 15.1.0, SVG Export Plug-In . SVG Version: 6.00 Build 0)  -->
<!DOCTYPE svg PUBLIC "-//W3C//DTD SVG 1.1//EN" "http://www.w3.org/Graphics/SVG/1.1/DTD/svg11.dtd">
<svg version="1.1" xmlns="http://www.w3.org/2000/svg" xmlns:xlink="http://www.w3.org/1999/xlink" x="0px" y="0px" width="525px"
	 height="562.5px" viewBox="100 0 525 562.5" enable-background="new 100 0 525 562.5" xml:space="preserve">
<g id="Layer_1" display="none">
	<g id="_x36__6_" display="inline">
		<g>
			<path fill="#FFFFFF" d="M550,337.5v-150C550,84.375,465.625,0,362.5,0S175,84.375,175,187.5v150l-75,150h170.625
				c9.375,43.125,46.875,75,91.875,75s82.5-31.875,91.875-75H625L550,337.5z M362.5,525c-24.375,0-45-15-52.5-37.5h105
				C407.5,510,386.875,525,362.5,525z M156.25,450l56.25-112.5v-150c0-82.5,67.5-150,150-150s150,67.5,150,150v150L568.75,450
				H156.25z"/>
		</g>
	</g>
</g>
<g id="Layer_2">
	<g id="_x36__1_">
		<g>
			<path fill="#FFFFFF" d="M550,337.5v-150C550,84.375,465.625,0,362.5,0S175,84.375,175,187.5v150l-75,150h170.625
				c9.375,43.125,46.875,75,91.875,75s82.5-31.875,91.875-75H625L550,337.5z M362.5,525c-24.375,0-45-15-52.5-37.5h105
				C407.5,510,386.875,525,362.5,525z M156.25,450l56.25-112.5v-150c0-82.5,67.5-150,150-150s150,67.5,150,150v150L568.75,450
				H156.25z"/>
		</g>
	</g>
</g>
</svg>
