<?xml version="1.0" encoding="utf-8"?>
<!-- Generator: Adobe Illustrator 15.1.0, SVG Export Plug-In . SVG Version: 6.00 Build 0)  -->
<!DOCTYPE svg PUBLIC "-//W3C//DTD SVG 1.1//EN" "http://www.w3.org/Graphics/SVG/1.1/DTD/svg11.dtd">
<svg version="1.1" id="Layer_1" xmlns="http://www.w3.org/2000/svg" xmlns:xlink="http://www.w3.org/1999/xlink" x="0px" y="0px"
	 width="100px" height="100px" viewBox="200 200 100 100" enable-background="new 200 200 100 100" xml:space="preserve">
<path d="M250,298.438c-26.758,0-48.438-21.68-48.438-48.438s21.68-48.438,48.438-48.438s48.438,21.68,48.438,48.438
	S276.758,298.438,250,298.438z M272.656,241.406H250v-13.848c0-2.09-2.539-3.145-4.004-1.66l-22.324,22.441
	c-0.918,0.918-0.918,2.383,0,3.301l22.324,22.441c1.484,1.484,4.004,0.43,4.004-1.66v-13.828h22.656
	c1.289,0,2.344-1.055,2.344-2.344v-12.5C275,242.461,273.945,241.406,272.656,241.406z"/>
</svg>
