<svg xmlns="http://www.w3.org/2000/svg" width="100" height="100" viewBox="200 200 100 100"><path d="M290.625 212.5h-81.25a9.375 9.375 0 0 0-9.375 9.375v56.25a9.375 9.375 0 0 0 9.375 9.375h81.25a9.375 9.375 0 0 0 9.375-9.375v-56.25a9.375 9.375 0 0 0-9.375-9.375zm0 9.375v7.97c-4.379 3.566-11.36 9.112-26.286 20.799-3.289 2.588-9.805 8.804-14.339 8.73-4.533.073-11.05-6.144-14.338-8.73-14.923-11.686-21.907-17.232-26.287-20.799v-7.97h81.25zm-81.25 56.25v-36.25c4.476 3.564 10.822 8.566 20.496 16.142 4.269 3.36 11.745 10.778 20.129 10.733 8.344.045 15.725-7.266 20.128-10.731 9.673-7.575 16.021-12.579 20.497-16.144v36.25h-81.25z"/></svg>