<svg xmlns="http://www.w3.org/2000/svg" width="100" height="100" viewBox="200 200 100 100"><path d="M290.625 212.5h-81.25c-5.176 0-9.375 4.199-9.375 9.375v56.25c0 5.176 4.199 9.375 9.375 9.375h81.25c5.176 0 9.375-4.199 9.375-9.375v-56.25c0-5.176-4.199-9.375-9.375-9.375zm-81.25 6.25h81.25a3.134 3.134 0 0 1 3.125 3.125v8.086c-4.277 3.613-10.391 8.594-29.414 23.691-3.301 2.617-9.805 8.926-14.336 8.848-4.531.078-11.055-6.23-14.336-8.848-19.023-15.098-25.137-20.078-29.414-23.691v-8.086a3.134 3.134 0 0 1 3.125-3.125zm81.25 62.5h-81.25a3.134 3.134 0 0 1-3.125-3.125v-40.039c4.453 3.652 11.484 9.297 25.527 20.449 4.004 3.203 11.074 10.254 18.223 10.215 7.109.059 14.121-6.934 18.223-10.215 14.043-11.152 21.074-16.797 25.527-20.449v40.039a3.134 3.134 0 0 1-3.125 3.125z"/></svg>